<svg width="230" height="1324" viewBox="0 0 230 1324" fill="none" xmlns="http://www.w3.org/2000/svg">
<path d="M-562.896 17.567C-562.975 17.6242 -563.073 17.6956 -563.19 17.7812C-563.545 18.0417 -564.075 18.4335 -564.764 18.9549C-566.143 19.9979 -568.162 21.56 -570.718 23.6312C-575.829 27.7736 -583.084 33.9516 -591.645 42.0844C-608.769 58.3514 -631.109 82.4311 -651.972 113.676C-693.693 176.159 -729.492 267.267 -705.891 381.888C-691.814 450.255 -664.822 481.904 -635.089 509.315C-630.288 513.741 -625.411 518.06 -620.5 522.409C-594.952 545.03 -568.514 568.44 -547.455 611.719C-539.385 628.304 -535.85 652.086 -533.537 680.051C-532.533 692.187 -531.758 705.143 -530.948 718.674C-530.823 720.753 -530.698 722.845 -530.571 724.95C-529.617 740.762 -528.563 757.297 -527.005 774.208C-520.77 841.88 -506.468 915.408 -458.389 972.271C-413.474 1025.39 -355.834 1048.1 -303.544 1060.29C-281.223 1065.49 -259.902 1068.77 -240.953 1071.69C-237.7 1072.19 -234.516 1072.68 -231.41 1073.17C-210.27 1076.48 -192.584 1079.67 -180.828 1085.28C-118.225 1115.13 -92.6291 1181.97 -73.3612 1236.54C-55.4134 1287.36 -33.0787 1312.27 -9.58863 1319.8C13.8732 1327.32 38.9138 1317.64 62.6211 1298.19C86.3066 1278.75 108.459 1249.73 126.015 1219.07C143.57 1188.41 156.483 1156.2 161.741 1130.44C168.149 1099.05 180.089 1081.89 192.252 1072.07C202.691 1063.64 213.239 1060.68 220.246 1058.71C221.383 1058.39 222.426 1058.1 223.361 1057.81C225.055 1057.29 226.308 1056.82 227.139 1056.31C227.95 1055.8 228.182 1055.37 228.203 1054.95C228.229 1054.43 227.956 1053.58 226.954 1052.23C225.975 1050.9 224.413 1049.24 222.148 1047.13C216.091 1041.48 205.316 1032.84 188.189 1019.12C179.642 1012.28 169.513 1004.16 157.599 994.516C144.084 983.574 135.239 972.599 129.964 961.431C124.686 950.255 123.007 938.938 123.748 927.357C125.122 905.887 134.833 883.435 145.301 859.233C146.088 857.412 146.88 855.582 147.673 853.742C159.036 827.358 170.68 798.756 173.506 766.652C176.329 734.584 170.355 698.966 146.359 658.578C132.814 635.779 121.126 601.52 112.185 561.106C103.239 520.674 97.0269 474.013 94.4655 426.365C89.3456 331.122 98.8008 231.726 130.342 170.254C141.051 149.382 145.445 132.26 144.941 118.133C144.439 104.041 139.061 92.8557 130.065 83.819C121.046 74.7589 108.363 67.8332 93.239 62.361C78.121 56.891 60.6264 52.8956 42.0389 49.6591C23.4531 46.4228 3.80903 43.9512 -15.6094 41.5184L-16.3059 41.4311C-35.4765 39.0296 -54.4145 36.6571 -71.8307 33.617C-89.4538 30.5407 -105.567 26.7731 -118.826 21.577C-131.853 16.4714 -142.229 9.9471 -148.542 1.24242L-562.896 17.567Z" fill="#FFD8D2" stroke="white" stroke-width="2"/>
</svg>
