<svg width="680" height="1500" viewBox="0 0 680 1500" fill="none" xmlns="http://www.w3.org/2000/svg">
<path d="M704.123 75.5722C704.104 75.5735 704.084 75.5748 704.062 75.5763C703.977 75.5821 703.875 75.5892 703.756 75.5976C703.329 75.6281 702.693 75.6768 701.858 75.7489C700.189 75.8934 697.729 76.1324 694.573 76.5096C688.26 77.264 679.166 78.5711 668.055 80.7817C645.83 85.2034 615.546 93.2364 583.312 107.68C518.849 136.564 446.637 191.056 415.392 293.557C396.756 354.689 405.905 393.116 419.358 429.566C421.529 435.449 423.816 441.286 426.119 447.163C438.099 477.744 450.504 509.408 449.254 554.168C448.774 571.344 441.091 591.976 430.47 615.294C425.859 625.415 420.68 636.074 415.272 647.203C414.442 648.912 413.605 650.633 412.765 652.365C406.452 665.374 399.9 679.003 393.617 693.181C368.475 749.908 347.704 815.25 363.789 884.101C378.819 948.439 418.642 994.982 458.584 1030.54C475.63 1045.71 492.677 1058.87 507.825 1070.56C510.426 1072.57 512.971 1074.53 515.45 1076.46C532.323 1089.55 546.24 1100.83 553.918 1111.08C594.836 1165.74 586.884 1231.44 578.977 1284.26C571.624 1333.4 579.766 1364.19 596.784 1381.8C613.802 1399.4 639.97 1404.11 669.346 1400.43C698.701 1396.74 731.052 1384.7 760.147 1369.08C789.243 1353.47 814.999 1334.33 831.186 1316.52C850.958 1294.78 869.104 1287.08 884.113 1285.31C896.985 1283.8 907.48 1286.67 914.456 1288.57C915.588 1288.88 916.627 1289.17 917.569 1289.4C919.276 1289.83 920.584 1290.08 921.545 1290.08C922.503 1290.08 922.85 1289.85 923.015 1289.59C923.239 1289.24 923.397 1288.48 923.137 1286.91C922.885 1285.38 922.279 1283.3 921.266 1280.5C918.556 1273.02 913.093 1260.85 904.411 1241.49C900.077 1231.83 894.941 1220.38 888.945 1206.84C882.143 1191.47 879.409 1178.38 879.871 1166.89C880.334 1155.39 883.997 1145.56 889.887 1136.72C900.796 1120.35 919.396 1107.34 939.414 1093.34C940.923 1092.28 942.44 1091.22 943.963 1090.15C965.755 1074.86 988.773 1057.95 1005.71 1033.92C1022.62 1009.93 1033.51 978.768 1030.91 934.893C1029.44 910.092 1034.76 877.127 1045.25 840.648C1055.74 804.153 1071.42 764.073 1090.72 725.018C1129.29 646.958 1182.42 572.798 1237.63 539.651C1256.35 528.408 1267.88 517.024 1273.8 505.612C1279.7 494.236 1280.09 482.744 1276.36 471.137C1272.62 459.495 1264.72 447.725 1254.05 435.894C1243.38 424.07 1229.98 412.24 1215.29 400.472C1200.6 388.705 1184.65 377.021 1168.87 365.48L1168.31 365.067C1152.74 353.673 1137.35 342.419 1123.59 331.389C1109.67 320.228 1097.38 309.268 1088.21 298.59C1079.2 288.103 1073.13 277.795 1071.57 267.752L704.123 75.5722Z" fill="#FFD8D2" stroke="white" stroke-width="2"/>
</svg>
